<svg width="40" height="40" viewBox="0 0 40 40" fill="none" xmlns="http://www.w3.org/2000/svg">
<path fill-rule="evenodd" clip-rule="evenodd" d="M0 34.3918V5.37155V4.79727C0.286162 1.95939 3.0049 0 6.43924 0H32.7689C36.7758 0 39.0653 2.36488 39.0653 6.62163V33.7837C39.0653 37.3648 36.6326 40 33.4844 40H5.43761C2.57572 40 0.286162 37.8039 0 34.9662V34.3918ZM15.8581 31.7246C17.0413 31.1186 17.7877 29.8793 17.7877 28.5249V20.8956L12.7387 23.4837C11.5546 24.0895 10.809 25.3304 10.809 26.6852V34.3147L15.8581 31.7246ZM26.3266 26.3581C27.5083 25.7497 28.256 24.5112 28.256 23.1558V5.68512L23.2051 8.27372C22.0232 8.88121 21.2773 10.1206 21.2773 11.475V28.9462L26.3266 26.3581Z" fill="#FF6700"/>
</svg>
