<svg width="128" height="128" viewBox="0 0 128 128" fill="none" xmlns="http://www.w3.org/2000/svg">
<path d="M0 26.353C0 11.7986 11.7986 0 26.353 0H101.647C116.202 0 128 11.7986 128 26.353V101.647C128 116.202 116.202 128 101.647 128H26.353C11.7986 128 0 116.202 0 101.647V26.353Z" fill="#F14635"/>
<path fill-rule="evenodd" clip-rule="evenodd" d="M64.0021 21.6C87.3592 21.6 106.302 40.3097 106.4 63.4285V63.7921C106.358 74.0708 102.575 83.4744 96.3432 90.7536C96.1168 90.64 95.7048 90.2688 94.9576 89.1512C94.1848 88.028 87.5184 77.7684 87.5184 66.0097C87.5184 63.7021 90.8448 60.0972 93.788 56.9329L93.8512 56.8649C96.028 54.5093 98.08 52.2891 98.84 50.5409C99.8176 48.2631 99.1336 46.6727 98.052 46.1336C97.0728 45.6545 95.6024 46.004 94.5712 47.8363C92.8784 50.8015 92.336 51.3556 89.8664 53.3397C87.4368 55.3229 83.5736 57.3192 83.5736 54.7351C83.5736 53.7928 84.5552 52.0459 85.5192 50.3287L85.52 50.3285C85.9832 49.5029 86.4432 48.6841 86.788 47.9649C87.8736 45.7253 86.704 44.1041 84.4624 44.1041C80.0608 44.1041 77.1395 49.7109 77.1395 51.6532C77.1395 52.5867 77.3573 53.1352 77.5834 53.7045C77.8274 54.3189 78.081 54.9577 78.081 56.1309C78.081 58.4081 73.2518 61.3619 68.7029 61.3619C64.1242 61.3619 61.5563 60.393 60.5969 57.6273L60.2927 56.7274L60.2421 56.5797C59.1892 53.5019 58.4182 51.2487 57.092 48.8959C56.3913 47.6583 55.3185 46.7924 54.3778 46.033L54.3177 45.9845C53.0697 45.0152 52.4224 44.1227 52.2873 43.4571C52.1629 42.7968 52.0955 41.5522 54.229 38.6835C56.3577 35.8311 56.6561 33.6762 55.5909 32.5644C55.2045 32.1688 54.5464 31.9154 53.7011 31.9154C52.2059 31.9154 50.1284 32.7076 47.9873 34.8837C45.3885 37.5465 45.9708 40.1043 46.3509 41.7743C46.4576 42.2431 46.5485 42.6421 46.5485 42.9537C46.5485 44.3742 45.9387 45.1777 43.9413 47.1102C41.9294 49.0514 41.235 50.7157 41.0049 57.4045C40.9168 60.8507 40.3098 62.8347 39.7649 64.5937C39.2941 66.1357 38.8612 67.585 38.8378 69.6795C38.8005 72.0003 39.1869 73.496 39.6377 75.2218C40.0802 76.8169 40.5504 78.6447 40.8516 81.7016C41.3705 86.8288 41.1318 91.0936 40.0606 95.5424L40.0063 95.8368L39.995 95.8816C39.819 96.5912 39.6099 97.4336 39.3293 97.7536C28.598 90.1312 21.6 77.6829 21.6 63.6114C21.6 40.4111 40.5833 21.6 64.0021 21.6ZM65.9761 67.0525C63.865 66.7201 62.3105 67.0265 61.2161 67.9519C58.3911 70.3577 58.4394 77.0624 58.496 84.8384L58.5101 87.04C58.543 94.7488 58.5863 101.414 60.3861 104.344C60.9601 105.279 62.0443 105.963 63.4865 106.373C63.5923 106.376 63.698 106.379 63.8037 106.383C64.071 106.393 64.3387 106.402 64.6096 106.402C68.1784 106.402 71.6433 105.961 74.9581 105.145C76.3282 104.484 77.3205 103.691 77.661 102.865C77.8653 102.329 77.9773 101.353 77.9773 100.082C77.9773 95.0456 76.4985 85.44 75.7677 80.692L75.746 80.5512L75.3765 78.0913L75.3068 77.6065L75.3034 77.5832C74.6844 73.2209 73.9845 68.2887 65.9761 67.0525ZM52.3485 98.112C52.1361 91.9784 51.0785 83.8888 49.4338 83.9816C47.6609 84.0904 46.9865 93.3192 47.7628 99.48C48.0171 101.441 48.4174 102.938 48.9411 103.889C49.7259 104.207 50.5224 104.5 51.3329 104.77C52.0491 104.139 52.4976 102.383 52.3485 98.112ZM90.6704 96.0672C91.0544 94.1144 86.4208 83.0568 83.8352 84.3056C81.8512 85.2896 82.6208 96.588 84.6704 100.19C84.884 100.551 85.3216 100.609 85.8144 100.526C87.3608 99.5936 88.8392 98.5584 90.2448 97.4296C90.4232 97.0632 90.568 96.6296 90.6704 96.0672Z" fill="white"/>
</svg>
