<svg width="40" height="40" viewBox="0 0 40 40" fill="none" xmlns="http://www.w3.org/2000/svg">
<circle cx="20" cy="20" r="20" fill="url(#paint0_linear_37268_3332)"/>
<path d="M16.7926 20.3671C14.9995 21.8745 13.6401 23.8821 12.9276 26.1733C12.5665 27.3343 12.3716 28.5658 12.3716 29.8434V32.3896H16.7926V29.8434C16.7926 25.4552 20.3663 21.8836 24.7525 21.8836V17.4604C24.2586 17.4604 23.7717 17.4898 23.2946 17.5464C20.8365 17.8363 18.5949 18.8491 16.7926 20.3671Z" fill="white"/>
<path d="M24.7525 7.625C17.9264 7.625 12.3716 13.1798 12.3716 20.008V22.5611C13.4725 20.5039 15.1364 18.7925 17.1552 17.635C18.1666 14.4001 21.192 12.0474 24.7525 12.0474H27.8665V7.625H24.7525Z" fill="white"/>
<defs>
<linearGradient id="paint0_linear_37268_3332" x1="40" y1="1.58642e-06" x2="-4.78251" y2="33.6319" gradientUnits="userSpaceOnUse">
<stop stop-color="#FC9385"/>
<stop offset="0.504256" stop-color="#A31551"/>
<stop offset="1" stop-color="#4A0221"/>
</linearGradient>
</defs>
</svg>
